<?xml version="1.0" encoding="UTF-8"?>
<svg id="Layer_1" xmlns="http://www.w3.org/2000/svg" version="1.1" viewBox="0 0 1190.55 841.89">
  <!-- Generator: Adobe Illustrator 29.4.0, SVG Export Plug-In . SVG Version: 2.1.0 Build 152)  -->
  <defs>
    <style>
      .st0 {
        fill: #addad8;
      }

      .st1 {
        fill: #ffe570;
      }

      .st2 {
        fill: #7cc3a6;
      }

      .st3 {
        fill: #f6b5ae;
      }

      .st4 {
        fill: #f6b089;
      }

      .st5 {
        fill: #f3f2ec;
      }
    </style>
  </defs>
  <rect class="st5" x="-5.29" y="-2.58" width="1201.13" height="847.06"/>
  <circle class="st1" cx="295.18" cy="731.07" r="31.58"/>
  <circle class="st1" cx="1104.97" cy="475.87" r="31.58"/>
  <circle class="st1" cx="1101.58" cy="721.98" r="31.58"/>
  <circle class="st1" cx="71.56" cy="310.92" r="31.58"/>
  <circle class="st1" cx="676.97" cy="39.87" r="31.58"/>
  <circle class="st1" cx="670.2" cy="338.03" r="31.58"/>
  <circle class="st0" cx="667.89" cy="476.95" r="31.58"/>
  <circle class="st0" cx="227.42" cy="70.36" r="31.58"/>
  <circle class="st0" cx="1086.95" cy="192.34" r="31.58"/>
  <circle class="st0" cx="966.05" cy="703.96" r="31.58"/>
  <circle class="st0" cx="796.64" cy="732.15" r="31.58"/>
  <circle class="st4" cx="887.04" cy="205.89" r="31.58"/>
  <circle class="st4" cx="375.42" cy="199.11" r="31.58"/>
  <circle class="st4" cx="85.11" cy="761.56" r="31.58"/>
  <circle class="st4" cx="189.07" cy="639.58" r="31.58"/>
  <circle class="st4" cx="933.25" cy="439.68" r="31.58"/>
  <circle class="st3" cx="589.96" cy="683.63" r="31.58"/>
  <circle class="st3" cx="152.88" cy="351.58" r="31.58"/>
  <circle class="st3" cx="1019.18" cy="778.5" r="31.58"/>
  <circle class="st3" cx="102.06" cy="87.3" r="31.58"/>
  <circle class="st3" cx="1019.18" cy="73.75" r="31.58"/>
  <circle class="st3" cx="549.3" cy="360.67" r="31.58"/>
  <circle class="st2" cx="922.01" cy="558.27" r="31.58"/>
  <circle class="st2" cx="217.25" cy="212.67" r="31.58"/>
  <circle class="st2" cx="962.67" cy="310.92" r="31.58"/>
  <circle class="st2" cx="356.17" cy="609.09" r="31.58"/>
</svg>