<?xml version="1.0" encoding="UTF-8"?>
<svg id="Layer_1" xmlns="http://www.w3.org/2000/svg" version="1.1" viewBox="0 0 1190.55 841.89">
  <!-- Generator: Adobe Illustrator 29.4.0, SVG Export Plug-In . SVG Version: 2.1.0 Build 152)  -->
  <defs>
    <style>
      .st0 {
        fill: #addad8;
      }

      .st1 {
        fill: #ffe570;
      }

      .st2 {
        fill: #7cc3a6;
      }

      .st3 {
        fill: #f6b5ae;
      }

      .st4 {
        fill: #f6b089;
      }

      .st5 {
        fill: #f3f2ec;
      }
    </style>
  </defs>
  <rect class="st5" x="-5.29" y="-2.58" width="1201.13" height="847.06"/>
  <circle class="st1" cx="929.08" cy="462.73" r="31.58"/>
  <circle class="st1" cx="613.85" cy="67.64" r="31.58"/>
  <circle class="st1" cx="116.45" cy="275.27" r="31.58"/>
  <circle class="st1" cx="458.7" cy="588.22" r="31.58"/>
  <circle class="st1" cx="1074.74" cy="161.56" r="31.58"/>
  <circle class="st1" cx="57.13" cy="791.29" r="31.58"/>
  <circle class="st0" cx="376.93" cy="709.15" r="31.58"/>
  <circle class="st0" cx="905.9" cy="328.12" r="31.58"/>
  <circle class="st0" cx="91.72" cy="95.39" r="31.58"/>
  <circle class="st0" cx="553.09" cy="454.7" r="31.58"/>
  <circle class="st0" cx="1133.69" cy="99.95" r="31.58"/>
  <circle class="st4" cx="824.08" cy="739.01" r="31.58"/>
  <circle class="st4" cx="477.27" cy="246.17" r="31.58"/>
  <circle class="st4" cx="207.72" cy="291.61" r="31.58"/>
  <circle class="st4" cx="1049.64" cy="620.17" r="31.58"/>
  <circle class="st4" cx="1042.8" cy="70.29" r="31.58"/>
  <circle class="st3" cx="237.38" cy="99.59" r="31.58"/>
  <circle class="st3" cx="1083.87" cy="361.97" r="31.58"/>
  <circle class="st3" cx="725.65" cy="284.4" r="31.58"/>
  <circle class="st3" cx="93.64" cy="627.01" r="31.58"/>
  <circle class="st3" cx="273.52" cy="656.67" r="31.58"/>
  <circle class="st2" cx="125.58" cy="433.07" r="31.58"/>
  <circle class="st2" cx="1106.68" cy="762" r="31.58"/>
  <circle class="st2" cx="652.64" cy="540.68" r="31.58"/>
  <circle class="st2" cx="844.66" cy="126.97" r="31.58"/>
</svg>