<?xml version="1.0" encoding="UTF-8"?>
<svg id="Layer_1" xmlns="http://www.w3.org/2000/svg" version="1.1" viewBox="0 0 1190.55 841.89">
  <!-- Generator: Adobe Illustrator 29.4.0, SVG Export Plug-In . SVG Version: 2.1.0 Build 152)  -->
  <defs>
    <style>
      .st0 {
        fill: #addad8;
      }

      .st1 {
        fill: #ffe570;
      }

      .st2 {
        fill: #7cc3a6;
      }

      .st3 {
        fill: #f6b5ae;
      }

      .st4 {
        fill: #f6b089;
      }

      .st5 {
        fill: #f3f2ec;
      }
    </style>
  </defs>
  <rect class="st5" x="-5.29" y="-2.58" width="1201.13" height="847.06"/>
  <circle class="st1" cx="1037.29" cy="206.41" r="31.58"/>
  <circle class="st1" cx="768.06" cy="718.72" r="31.58"/>
  <circle class="st1" cx="204.63" cy="750.52" r="31.58"/>
  <circle class="st1" cx="666.94" cy="107.98" r="31.58"/>
  <circle class="st1" cx="185.42" cy="165.82" r="31.58"/>
  <circle class="st1" cx="771.8" cy="485.25" r="31.58"/>
  <circle class="st1" cx="65.45" cy="50.43" r="31.58"/>
  <circle class="st0" cx="897.02" cy="286.22" r="31.58"/>
  <circle class="st0" cx="342.7" cy="663.52" r="31.58"/>
  <circle class="st0" cx="939.28" cy="549.69" r="31.58"/>
  <circle class="st0" cx="544.22" cy="618.19" r="31.58"/>
  <circle class="st0" cx="123.34" cy="528.38" r="31.58"/>
  <circle class="st4" cx="1083.6" cy="111.17" r="31.58"/>
  <circle class="st4" cx="95.43" cy="449.91" r="31.58"/>
  <circle class="st4" cx="1135.54" cy="782.46" r="31.58"/>
  <circle class="st4" cx="1010.37" cy="424.81" r="31.58"/>
  <circle class="st4" cx="249.34" cy="601.85" r="31.58"/>
  <circle class="st3" cx="263.37" cy="428.78" r="31.58"/>
  <circle class="st3" cx="1097.56" cy="469.58" r="31.58"/>
  <circle class="st3" cx="61.69" cy="141.39" r="31.58"/>
  <circle class="st3" cx="279.92" cy="77.07" r="31.58"/>
  <circle class="st3" cx="808.53" cy="206.69" r="31.58"/>
  <circle class="st3" cx="478.43" cy="453.91" r="31.58"/>
  <circle class="st2" cx="392.53" cy="186.66" r="31.58"/>
  <circle class="st2" cx="657.2" cy="410.26" r="31.58"/>
  <circle class="st2" cx="1027.1" cy="653.8" r="31.58"/>
  <circle class="st2" cx="1094.83" cy="293.82" r="31.58"/>
  <circle class="st2" cx="72.66" cy="768.77" r="31.58"/>
  <circle class="st2" cx="898.25" cy="61.47" r="31.58"/>
</svg>